<mxfile host="app.diagrams.net" modified="2023-07-24T20:44:47.096Z" agent="Mozilla/5.0 (Windows NT 10.0; Win64; x64) AppleWebKit/537.36 (KHTML, like Gecko) Chrome/114.0.0.0 Safari/537.36" version="21.6.5" etag="PasDpgNcW_rr9buE1xa5" type="github">
  <diagram name="PÃ¡gina-1" id="YE9jcJAJMcragg8VuDX6">
    <mxGraphModel>
      <root>
        <mxCell id="0" />
        <mxCell id="1" parent="0" />
      </root>
    </mxGraphModel>
  </diagram>
</mxfile>
